<svg xmlns="http://www.w3.org/2000/svg" width="564" height="564" viewBox="0 0 564 564" fill="none"><path d="M462.942 33.603H43.0215V275.333H462.942V33.603Z" fill="#EBEBEB"></path><path d="M61.78 44.7816C61.78 45.413 61.5928 46.0301 61.242 46.5551C60.8912 47.0801 60.3927 47.4892 59.8094 47.7308C59.2261 47.9725 58.5842 48.0357 57.965 47.9125C57.3457 47.7893 56.7769 47.4853 56.3305 47.0388C55.8841 46.5924 55.58 46.0236 55.4568 45.4044C55.3337 44.7851 55.3969 44.1433 55.6385 43.56C55.8801 42.9767 56.2893 42.4781 56.8142 42.1273C57.3392 41.7766 57.9564 41.5894 58.5877 41.5894C59.4344 41.5894 60.2463 41.9257 60.845 42.5243C61.4437 43.123 61.78 43.935 61.78 44.7816Z" fill="white"></path><path d="M73.6014 44.7816C73.6036 45.4162 73.4173 46.0371 73.0662 46.5656C72.715 47.0942 72.2148 47.5065 71.629 47.7504C71.0432 47.9942 70.3981 48.0586 69.7756 47.9354C69.1532 47.8121 68.5813 47.5068 68.1326 47.0581C67.6839 46.6094 67.3786 46.0376 67.2553 45.4151C67.1321 44.7926 67.1965 44.1476 67.4404 43.5617C67.6842 42.9759 68.0966 42.4757 68.6251 42.1246C69.1536 41.7734 69.7746 41.5871 70.4091 41.5894C71.2558 41.5894 72.0677 41.9257 72.6664 42.5244C73.265 43.123 73.6014 43.935 73.6014 44.7816Z" fill="white"></path><path d="M85.4236 44.7816C85.4259 45.4162 85.2396 46.0371 84.8884 46.5656C84.5373 47.0942 84.0371 47.5065 83.4513 47.7504C82.8654 47.9942 82.2204 48.0586 81.5979 47.9354C80.9754 47.8121 80.4036 47.5068 79.9549 47.0581C79.5062 46.6094 79.2009 46.0376 79.0776 45.4151C78.9544 44.7926 79.0187 44.1476 79.2626 43.5617C79.5065 42.9759 79.9188 42.4757 80.4474 42.1246C80.9759 41.7734 81.5968 41.5871 82.2314 41.5894C83.078 41.5894 83.89 41.9257 84.4886 42.5244C85.0873 43.123 85.4236 43.935 85.4236 44.7816Z" fill="white"></path><path d="M542.105 253.653H325.743V378.196H542.105V253.653Z" fill="#EBEBEB"></path><path d="M335.399 259.44C335.399 259.766 335.303 260.084 335.122 260.355C334.941 260.626 334.684 260.837 334.383 260.961C334.082 261.086 333.751 261.119 333.431 261.055C333.112 260.992 332.818 260.835 332.588 260.604C332.358 260.374 332.201 260.081 332.137 259.761C332.074 259.442 332.106 259.111 332.231 258.81C332.355 258.509 332.567 258.251 332.837 258.071C333.108 257.89 333.427 257.793 333.752 257.793C334.189 257.793 334.608 257.966 334.917 258.275C335.226 258.584 335.399 259.003 335.399 259.44Z" fill="white"></path><path d="M341.49 259.44C341.49 259.766 341.393 260.084 341.212 260.355C341.032 260.626 340.774 260.837 340.473 260.961C340.172 261.086 339.841 261.119 339.522 261.055C339.202 260.992 338.909 260.835 338.679 260.604C338.448 260.374 338.291 260.081 338.228 259.761C338.164 259.442 338.197 259.111 338.322 258.81C338.446 258.509 338.657 258.251 338.928 258.071C339.199 257.89 339.517 257.793 339.843 257.793C340.28 257.793 340.699 257.966 341.008 258.275C341.317 258.584 341.49 259.003 341.49 259.44Z" fill="white"></path><path d="M347.582 259.44C347.582 259.766 347.485 260.084 347.304 260.355C347.123 260.626 346.866 260.837 346.565 260.961C346.264 261.086 345.933 261.119 345.614 261.055C345.294 260.992 345.001 260.835 344.77 260.604C344.54 260.374 344.383 260.081 344.32 259.761C344.256 259.442 344.289 259.111 344.413 258.81C344.538 258.509 344.749 258.251 345.02 258.071C345.291 257.89 345.609 257.793 345.935 257.793C346.372 257.793 346.791 257.966 347.099 258.275C347.408 258.584 347.582 259.003 347.582 259.44Z" fill="white"></path><path d="M155.472 313.11H38.8818V459.897H155.472V313.11Z" fill="#EBEBEB"></path><path d="M155.461 459.908C155.461 459.908 155.461 459.66 155.461 459.186C155.461 458.712 155.461 458.058 155.461 457.133C155.461 455.294 155.461 452.621 155.461 449.147C155.461 442.165 155.393 431.99 155.348 419.086C155.348 393.3 155.235 356.651 155.156 313.11L155.551 313.516L38.8931 313.584L39.3331 313.133C39.3331 367.491 39.3331 418.037 39.2541 459.931L38.8931 459.558L123.493 459.75L147.181 459.84H153.419C154.84 459.84 155.585 459.84 155.585 459.84H153.498H147.339L123.786 459.931L38.8819 460.224H38.5096V459.852C38.5096 417.924 38.5096 367.356 38.4307 313.054V312.614H38.8931H155.461H155.867V313.009C155.776 356.662 155.709 393.401 155.664 419.244C155.664 432.103 155.585 442.255 155.551 449.215C155.551 452.655 155.551 455.306 155.551 457.111C155.551 457.979 155.551 458.645 155.551 459.118C155.551 459.592 155.461 459.908 155.461 459.908Z" fill="#EBEBEB"></path><path d="M155.46 386.701C155.46 386.938 129.573 387.141 97.6616 387.141C65.7504 387.141 39.8516 386.938 39.8516 386.701C39.8516 386.464 65.7279 386.25 97.6616 386.25C129.595 386.25 155.46 386.453 155.46 386.701Z" fill="#EBEBEB"></path><path d="M155.46 424.94C155.46 425.188 129.573 425.38 97.6616 425.38C65.7504 425.38 39.8516 425.188 39.8516 424.94C39.8516 424.692 65.7279 424.489 97.6616 424.489C129.595 424.489 155.46 424.692 155.46 424.94Z" fill="#EBEBEB"></path><path d="M155.46 349.905C155.46 350.153 129.573 350.345 97.6616 350.345C65.7504 350.345 39.8516 350.153 39.8516 349.905C39.8516 349.657 65.7279 349.454 97.6616 349.454C129.595 349.454 155.46 349.68 155.46 349.905Z" fill="#EBEBEB"></path><path d="M138.146 333.268C138.146 333.505 120.391 333.708 98.4964 333.708C76.6019 333.708 58.8359 333.505 58.8359 333.268C58.8359 333.031 76.5907 332.816 98.4964 332.816C120.402 332.816 138.146 333.019 138.146 333.268Z" fill="#DBDBDB"></path><path d="M138.146 368.303C138.146 368.551 120.391 368.743 98.4964 368.743C76.6019 368.743 58.8359 368.551 58.8359 368.303C58.8359 368.055 76.5907 367.852 98.4964 367.852C120.402 367.852 138.146 368.055 138.146 368.303Z" fill="#DBDBDB"></path><path d="M131.558 443.767C131.558 444.003 115.281 444.207 95.2027 444.207C75.1243 444.207 58.8359 444.003 58.8359 443.767C58.8359 443.53 75.113 443.315 95.2027 443.315C115.292 443.315 131.558 443.518 131.558 443.767Z" fill="#DBDBDB"></path><path d="M138.146 405.753C138.146 405.99 120.391 406.193 98.4964 406.193C76.6019 406.193 58.8359 405.99 58.8359 405.753C58.8359 405.516 76.5907 405.302 98.4964 405.302C120.402 405.302 138.146 405.505 138.146 405.753Z" fill="#DBDBDB"></path><path d="M289.58 500.798V532.382H335.76H386.712V500.798H289.58Z" fill="#F5F5F5"></path><path d="M285.508 491.977V500.798H390.107V491.977H335.76H285.508Z" fill="#EBEBEB"></path><path d="M337.801 532.382H386.712V500.798H390.107V491.977H335.76V499.986L337.801 532.382Z" fill="#EBEBEB"></path><path d="M322.856 505.896H303.161V510.645H322.856V505.896Z" fill="#EBEBEB"></path><path d="M325.913 516.59H300.623V526.629H325.913V516.59Z" fill="white"></path><path d="M304.525 460.427V492.011H350.706H401.646V460.427H304.525Z" fill="#F5F5F5"></path><path d="M300.442 451.606V460.427H405.042V451.606H350.706H300.442Z" fill="#EBEBEB"></path><path d="M352.748 492.011H401.647V460.427H405.042V451.606H350.706V459.615L352.748 492.011Z" fill="#EBEBEB"></path><path d="M337.802 465.525H318.107V470.274H337.802V465.525Z" fill="#EBEBEB"></path><path d="M340.859 476.219H315.569V486.258H340.859V476.219Z" fill="white"></path><path d="M73.8164 60.4604V322.946H508.503V92.4054H190.779L190.384 60.4604H73.8164Z" fill="white"></path><path d="M189.82 96.4666L189.414 66.4956H296.958V96.4666H189.82Z" fill="#F5F5F5"></path><path d="M403.057 72.0679H296.957V96.4552H403.057V72.0679Z" fill="#EBEBEB"></path><path d="M402.809 96.4663L403.045 75.0117H508.502V96.4663H402.809Z" fill="#E0E0E0"></path><path d="M168.354 81.4753C168.354 81.6445 151.637 81.7685 131.028 81.7685C110.42 81.7685 93.6914 81.6445 93.6914 81.4753C93.6914 81.3061 110.397 81.2158 131.028 81.2158C151.659 81.2158 168.354 81.3173 168.354 81.4753Z" fill="#2093BF"></path><path d="M281.053 81.4754C281.053 81.6446 264.336 81.7687 243.727 81.7687C223.119 81.7687 206.391 81.6446 206.391 81.4754C206.391 81.3062 223.096 81.1821 243.727 81.1821C264.359 81.1821 281.053 81.3175 281.053 81.4754Z" fill="#263238"></path><path d="M389.318 85.7279C389.318 85.8858 372.601 86.0211 351.981 86.0211C331.361 86.0211 314.645 85.8858 314.645 85.7279C314.645 85.5699 331.361 85.4346 351.981 85.4346C372.601 85.4346 389.318 85.5699 389.318 85.7279Z" fill="#263238"></path><path d="M494.459 86.5628C494.459 86.732 477.742 86.8674 457.122 86.8674C436.502 86.8674 419.785 86.732 419.785 86.5628C419.785 86.3936 436.502 86.2695 457.122 86.2695C477.742 86.2695 494.459 86.4049 494.459 86.5628Z" fill="#263238"></path><path d="M508.503 94.1768H73.8164V119.782H508.503V94.1768Z" fill="#FAFAFA"></path><path d="M281.053 118.056H73.8164V143.662H281.053V118.056Z" fill="#2093BF"></path><path d="M508.503 118.056H403.046V143.662H508.503V118.056Z" fill="#2093BF"></path><path d="M252.823 176.211L101.919 176.369L102.038 289.789L252.941 289.631L252.823 176.211Z" fill="#2093BF"></path><g opacity="0.2"><path opacity="0.2" d="M102.039 289.794L154.672 219.227L187.372 263.309L209.492 239.7L252.943 289.625L102.039 289.794Z" fill="black"></path></g><g opacity="0.2"><path opacity="0.2" d="M201.179 210.541C201.183 212.893 200.49 215.193 199.187 217.151C197.884 219.109 196.029 220.636 193.858 221.54C191.686 222.444 189.295 222.683 186.988 222.228C184.681 221.772 182.56 220.643 180.895 218.982C179.229 217.322 178.094 215.204 177.632 212.898C177.17 210.592 177.403 208.201 178.3 206.027C179.197 203.853 180.72 201.994 182.674 200.685C184.628 199.376 186.926 198.677 189.278 198.674C192.429 198.674 195.45 199.923 197.681 202.148C199.912 204.372 201.17 207.391 201.179 210.541Z" fill="black"></path></g><path d="M366.86 178.969C366.86 179.138 352.354 179.262 334.464 179.262C316.573 179.262 302.067 179.138 302.067 178.969C302.067 178.799 316.573 178.675 334.464 178.675C352.354 178.675 366.86 178.811 366.86 178.969Z" fill="#2093BF"></path><path d="M464.804 200.705C464.804 200.863 428.37 200.998 383.441 200.998C338.513 200.998 302.067 200.863 302.067 200.705C302.067 200.547 338.49 200.412 383.441 200.412C428.392 200.412 464.804 200.536 464.804 200.705Z" fill="#263238"></path><path d="M464.804 214.872C464.804 215.03 428.37 215.166 383.441 215.166C338.513 215.166 302.067 215.03 302.067 214.872C302.067 214.714 338.49 214.579 383.441 214.579C428.392 214.579 464.804 214.703 464.804 214.872Z" fill="#263238"></path><path d="M464.804 228.984C464.804 229.153 428.37 229.288 383.441 229.288C338.513 229.288 302.067 229.153 302.067 228.984C302.067 228.815 338.49 228.69 383.441 228.69C428.392 228.69 464.804 228.871 464.804 228.984Z" fill="#263238"></path><path d="M464.804 243.197C464.804 243.366 428.37 243.49 383.441 243.49C338.513 243.49 302.067 243.366 302.067 243.197C302.067 243.027 338.49 242.903 383.441 242.903C428.392 242.903 464.804 243.039 464.804 243.197Z" fill="#263238"></path><path d="M464.804 257.364C464.804 257.533 428.37 257.657 383.441 257.657C338.513 257.657 302.067 257.533 302.067 257.364C302.067 257.195 338.49 257.071 383.441 257.071C428.392 257.071 464.804 257.184 464.804 257.364Z" fill="#263238"></path><path d="M464.804 271.532C464.804 271.701 428.37 271.825 383.441 271.825C338.513 271.825 302.067 271.701 302.067 271.532C302.067 271.363 338.49 271.239 383.441 271.239C428.392 271.239 464.804 271.374 464.804 271.532Z" fill="#263238"></path><path d="M464.804 283.568C464.804 283.737 428.37 283.861 383.441 283.861C338.513 283.861 302.067 283.737 302.067 283.568C302.067 283.398 338.49 283.274 383.441 283.274C428.392 283.274 464.804 283.41 464.804 283.568Z" fill="#263238"></path><path d="M73.8164 60.4607L190.384 60.3027H190.542V60.4607C190.677 71.0639 190.82 82.3025 190.971 94.1766L190.79 93.9961L508.503 93.8946H508.785V94.1766C508.785 164.959 508.785 242.351 508.785 322.946V323.24H508.333L73.8164 323.172H73.5908V322.946C73.7262 162.139 73.8164 62.3106 73.8164 60.4607C73.8164 62.3106 73.9067 162.139 74.042 322.946L73.8164 322.721L508.345 322.608H508.503L508.209 322.901C508.209 242.306 508.209 164.913 508.209 94.1315L508.48 94.4135L190.767 94.3119H190.632V94.1315C190.512 82.2649 190.388 71.0263 190.26 60.4155L190.418 60.5735L73.8164 60.4607Z" fill="#263238"></path><path d="M153.623 130.532C153.623 130.69 140.978 130.825 125.423 130.825C109.868 130.825 97.2227 130.69 97.2227 130.532C97.2227 130.374 109.868 130.239 125.423 130.239C140.978 130.239 153.623 130.363 153.623 130.532Z" fill="#263238"></path><path d="M177.378 143.73C177.22 143.73 177.085 138.169 177.085 131.322C177.085 124.475 177.22 118.914 177.378 118.914C177.536 118.914 177.672 124.463 177.672 131.322C177.672 138.18 177.547 143.73 177.378 143.73Z" fill="#263238"></path><path d="M257.082 131.581C257.082 131.75 245.802 131.874 231.747 131.874C217.693 131.874 206.424 131.75 206.424 131.581C206.424 131.412 217.772 131.288 231.759 131.288C245.746 131.288 257.082 131.423 257.082 131.581Z" fill="#263238"></path><path d="M495.677 131.051C495.677 131.22 481.848 131.356 464.804 131.356C447.76 131.356 433.919 131.22 433.919 131.051C433.919 130.882 447.737 130.758 464.804 130.758C481.87 130.758 495.677 130.848 495.677 131.051Z" fill="#263238"></path><path d="M364.773 131.581C364.773 131.75 353.425 131.874 339.438 131.874C325.451 131.874 314.092 131.75 314.092 131.581C314.092 131.412 325.439 131.288 339.438 131.288C353.436 131.288 364.773 131.423 364.773 131.581Z" fill="#263238"></path><path d="M508.503 143.662H506.596H501.013L479.739 143.73L403.035 143.831H402.798V143.583C402.798 135.473 402.798 126.889 402.798 117.978L403.057 118.237H291.182H281.03L281.323 117.944V143.888H281.03L133.386 143.786L89.6649 143.696H77.8773H74.8317C74.1436 143.696 73.7939 143.696 73.7939 143.696C73.7939 143.696 74.1436 143.696 74.8317 143.696H77.8773H89.6649L133.386 143.606L281.03 143.504L280.737 143.798V117.854H291.148H403.023H403.283V118.113C403.283 127.024 403.283 135.608 403.283 143.719L403.035 143.482L479.739 143.583L501.013 143.651H506.596L508.503 143.662Z" fill="#263238"></path><path d="M483.687 177.266L494.515 209.684L498.396 199.69L511.74 214.76L516.759 210.271L503.415 195.201L513.375 192.245L483.687 177.266Z" fill="#263238"></path><path d="M478.272 178.833C475.605 179.166 472.917 179.309 470.23 179.262C467.545 179.404 464.853 179.352 462.176 179.104C464.843 178.765 467.531 178.622 470.218 178.675C472.903 178.526 475.595 178.579 478.272 178.833Z" fill="#263238"></path><path d="M481.904 174.84C480.931 174.319 479.999 173.723 479.118 173.058C477.437 171.93 475.136 170.26 472.621 168.422C470.105 166.583 467.838 164.891 466.225 163.65C465.313 163.022 464.46 162.312 463.676 161.53C464.657 162.033 465.59 162.626 466.462 163.301C468.143 164.429 470.444 166.109 472.97 167.948C475.497 169.787 477.742 171.479 479.366 172.72C480.276 173.346 481.126 174.056 481.904 174.84Z" fill="#263238"></path><path d="M485.807 171.828C485.429 170.001 485.218 168.144 485.176 166.279C485.074 164.903 484.995 163.65 484.905 162.342C484.839 161.803 484.801 161.261 484.792 160.718C485.074 160.639 485.559 163.165 485.762 166.234C485.993 168.091 486.008 169.968 485.807 171.828Z" fill="#263238"></path><path d="M456.84 305.778C445.019 311.903 435.95 322.45 429.43 334.069C422.91 345.687 418.703 358.422 414.54 371.067L410.908 436.31C424.659 412.904 435.724 385.381 438.691 358.4L429.543 357.576C435.69 356.629 440.823 352.184 444.117 346.905C447.41 341.626 449.08 335.558 450.727 329.568L439.559 331.226C448.378 325.281 454.567 316.167 456.84 305.778Z" fill="#455A64"></path><g opacity="0.3"><path opacity="0.3" d="M456.84 305.778C445.019 311.903 435.95 322.45 429.43 334.069C422.91 345.687 418.703 358.422 414.54 371.067L410.908 436.31C424.659 412.904 435.724 385.381 438.691 358.4L429.543 357.576C435.69 356.629 440.823 352.184 444.117 346.905C447.41 341.626 449.08 335.558 450.727 329.568L439.559 331.226C448.378 325.281 454.567 316.167 456.84 305.778Z" fill="black"></path></g><path d="M408.877 451.606C408.877 451.606 379.008 415.848 379.358 381.726H391.416C391.416 381.726 378.32 373.108 379.346 368.281C380.373 363.453 380.734 345.168 380.734 345.168L391.766 347.92C391.766 347.92 383.52 343.814 382.46 337.272C381.399 330.729 384.874 300.386 384.874 300.386C384.874 300.386 398.308 314.52 402.448 329.004C406.588 343.487 417.439 360.362 414.258 404.489C411.077 448.617 408.877 451.606 408.877 451.606Z" fill="#455A64"></path><path d="M424.015 454.979C424.015 454.979 456.378 433.423 463.563 405.911L453.862 403.271C453.862 403.271 466.27 399.21 466.507 395.104C466.744 390.998 470.455 376.233 470.455 376.233L460.98 376.03C460.98 376.03 468.537 374.518 470.805 369.476C473.072 364.434 476.93 339.302 476.93 339.302C476.93 339.302 463.033 347.717 456.535 358.478C450.038 369.239 437.664 380.395 430.524 416.559C423.384 452.723 424.015 454.979 424.015 454.979Z" fill="#455A64"></path><path d="M393.029 331.542C393.078 331.662 393.116 331.786 393.142 331.914C393.199 332.196 393.289 332.557 393.402 333.042L394.349 337.283C394.766 339.122 395.251 341.378 395.77 344.051C396.289 346.724 396.898 349.691 397.53 352.996C398.805 359.617 400.158 367.547 401.546 376.357C402.933 385.167 404.242 394.901 405.437 405.132C406.633 415.363 407.513 425.143 408.212 434.043C408.912 442.943 409.34 450.963 409.633 457.731C409.803 461.115 409.882 464.149 409.961 466.834C410.04 469.518 410.096 471.82 410.119 473.703C410.141 475.587 410.119 477.02 410.119 478.046V479.174C410.135 479.301 410.135 479.43 410.119 479.558C410.104 479.43 410.104 479.302 410.119 479.174C410.119 478.881 410.119 478.509 410.062 478.046C410.062 477.008 409.972 475.553 409.904 473.703C409.837 471.853 409.78 469.507 409.656 466.834C409.532 464.16 409.43 461.104 409.239 457.731C408.923 450.963 408.393 442.977 407.705 434.043C407.017 425.109 406.046 415.386 404.873 405.155C403.7 394.924 402.358 385.223 401.038 376.402C399.718 367.581 398.365 359.651 397.146 353.019C396.56 349.702 396.019 346.702 395.466 344.074C394.913 341.445 394.53 339.178 394.146 337.306C393.763 335.433 393.503 334.046 393.311 333.042L393.097 331.914C393.065 331.792 393.042 331.667 393.029 331.542Z" fill="#263238"></path><path d="M404.738 473.489C404.738 473.489 377.406 442.481 368.912 423.733L375.319 420.992C370.683 421.759 365.923 419.763 362.325 416.74C358.727 413.717 356.076 409.723 353.481 405.787L361.919 404.365C354.167 402.153 347.566 397.039 343.487 390.085C353.436 391.721 362.449 397.191 369.871 404.027C375.768 409.693 381.123 415.898 385.866 422.56C388.26 425.756 390.341 429.175 392.082 432.768C396.673 442.266 404.749 462.108 404.738 473.489Z" fill="#455A64"></path><path d="M463.991 357.35C463.963 357.46 463.921 357.566 463.867 357.666C463.766 357.903 463.619 358.196 463.45 358.568C463.055 359.392 462.491 360.542 461.792 362.009C460.325 364.987 458.25 369.318 455.746 374.688C453.241 380.057 450.32 386.509 447.207 393.706C444.093 400.902 440.833 408.889 437.551 417.326C434.268 425.763 431.369 433.885 428.809 441.296C426.248 448.707 424.083 455.43 422.334 461.104C420.586 466.777 419.187 471.368 418.273 474.561L417.145 478.215L416.841 479.163C416.773 479.377 416.728 479.49 416.728 479.49C416.714 479.378 416.714 479.264 416.728 479.152C416.796 478.903 416.875 478.588 416.965 478.193L417.946 474.493C418.804 471.289 420.123 466.665 421.827 460.957C423.53 455.249 425.684 448.549 428.189 441.093C430.693 433.637 433.648 425.538 436.908 417.089C440.168 408.64 443.495 400.665 446.609 393.469C449.722 386.272 452.7 379.843 455.261 374.496C457.821 369.149 459.953 364.829 461.487 361.885C462.232 360.441 462.818 359.302 463.247 358.501C463.439 358.14 463.596 357.858 463.709 357.621C463.822 357.384 463.98 357.339 463.991 357.35Z" fill="#263238"></path><path d="M407.05 486.777C406.976 486.597 406.93 486.407 406.915 486.213C406.847 485.773 406.757 485.22 406.644 484.566C406.441 483.134 406.08 481.069 405.583 478.531C405.087 475.993 404.388 473.004 403.485 469.699C402.583 466.394 401.432 462.83 400.045 459.141C398.658 455.453 397.123 452.023 395.646 448.989C394.168 445.955 392.69 443.202 391.382 440.98C390.073 438.758 388.991 436.953 388.201 435.746L387.31 434.325C387.242 434.352 387.168 434.353 387.1 434.328C387.032 434.302 386.975 434.253 386.942 434.189C386.908 434.125 386.899 434.05 386.917 433.98C386.935 433.91 386.979 433.849 387.039 433.809C387.099 433.768 387.172 433.752 387.244 433.762C387.316 433.773 387.381 433.809 387.427 433.865C387.473 433.921 387.497 433.992 387.495 434.064C387.492 434.137 387.462 434.206 387.411 434.257C387.671 434.63 387.998 435.07 388.393 435.611C389.239 436.795 390.389 438.544 391.777 440.766C393.164 442.988 394.631 445.684 396.165 448.741C397.699 451.798 399.222 455.272 400.677 458.983C402.132 462.694 403.192 466.293 404.061 469.609C404.929 472.925 405.595 475.948 406.035 478.509C406.475 481.069 406.779 483.134 406.926 484.577C406.982 485.243 407.039 485.796 407.084 486.247C407.093 486.424 407.082 486.602 407.05 486.777Z" fill="#263238"></path><path d="M443.113 479.49H383.295V491.695H443.113V479.49Z" fill="#2093BF"></path><path d="M389.002 491.684L395.465 532.731H431.618L437.641 491.684H389.002Z" fill="#2093BF"></path><path d="M439.446 491.684C439.446 491.853 428.166 491.977 414.179 491.977C400.192 491.977 388.9 491.853 388.9 491.684C388.9 491.515 400.18 491.391 414.179 491.391C428.177 491.391 439.446 491.526 439.446 491.684Z" fill="#263238"></path><path d="M506.833 533.116C506.833 533.285 406.159 533.409 282.011 533.409C157.864 533.409 57.167 533.285 57.167 533.116C57.167 532.946 157.818 532.822 282.011 532.822C406.204 532.822 506.833 532.958 506.833 533.116Z" fill="#263238"></path><path d="M201.045 142.974C180.983 155.693 145.206 193.129 148.472 202.877C155.031 222.527 181.381 248.724 188.339 253.791C192.364 256.736 221.968 230.128 218.136 226.424C213.661 222.103 186.075 198.864 185.895 196.447C185.741 194.595 199.797 174.083 210.034 156.709C221.827 136.557 210.561 136.904 201.045 142.974Z" fill="#F7A9A0"></path><path d="M213.828 223.993C213.828 223.993 226.984 231.529 235.343 236.853C240.011 239.824 247.56 245.65 249.978 249.405C253.617 255.025 265.204 280.835 258.98 283.793C253.373 286.455 246.223 263.011 246.223 263.011C246.223 263.011 255.533 286.031 248.177 287.999C240.821 289.966 236.282 262.407 236.282 262.407C236.282 262.407 245.284 286.275 237.413 287.098C231.446 287.729 225.916 262.998 225.916 262.998C225.916 262.998 233.529 283.575 227.421 284.475C220.669 285.491 214.136 262.973 214.136 262.973C198.215 262.677 188.416 256.838 185.098 248.826C184.455 247.296 213.828 223.993 213.828 223.993Z" fill="#F7A9A0"></path><path d="M243.483 254.871C244.666 257.533 245.888 260.221 246.84 262.986C247.791 265.751 248.653 268.541 249.334 271.383C250.303 275.073 250.851 278.861 250.968 282.675C250.273 275.91 247.033 265.956 246.081 263.217C245.129 260.478 244.319 257.661 243.38 254.896C243.419 254.832 243.483 254.806 243.483 254.871Z" fill="#263238"></path><path d="M233.516 258.112C234.88 261.584 236.371 264.979 237.593 268.503C238.815 272.026 239.651 275.46 240.628 279.048C240.693 279.318 240.525 279.267 240.435 279.048C239.329 275.499 238.03 272.309 236.873 268.76C235.716 265.211 234.7 261.648 233.426 258.176C233.401 258.086 233.491 258.06 233.516 258.112Z" fill="#263238"></path><path d="M224.398 259.359C226.63 264.616 228.315 270.089 229.427 275.692C229.491 275.974 229.272 275.884 229.195 275.601C227.626 270.123 226.43 265.828 224.218 259.41C224.193 259.333 224.347 259.243 224.398 259.359Z" fill="#263238"></path><path d="M211.422 219.852L182.217 253.109C182.217 253.109 145.372 213.769 146.838 200.485C148.304 187.2 180.699 154.394 198.717 143.231C216.734 132.068 218.869 142.459 211.307 156.773C203.745 171.086 186.872 196.498 187.31 197.154C187.747 197.81 211.422 219.852 211.422 219.852Z" fill="#2093BF"></path><path d="M202.33 211.506C203.052 212.195 203.629 213.021 204.027 213.936C203.119 213.527 202.294 212.951 201.597 212.239C200.895 211.532 200.321 210.71 199.899 209.808C200.814 210.207 201.64 210.784 202.33 211.506ZM164.546 191.958C165.26 192.65 165.836 193.47 166.244 194.376C165.333 193.977 164.511 193.4 163.826 192.678C163.113 191.981 162.53 191.162 162.103 190.261C163.001 190.668 163.813 191.245 164.495 191.958H164.546ZM181.946 156.091C182.24 156.492 182.49 156.923 182.692 157.377C182.236 157.179 181.805 156.929 181.406 156.631L181.946 156.091ZM180.262 178.249C180.958 177.535 181.782 176.96 182.692 176.552C181.848 178.373 180.386 179.836 178.564 180.68C178.969 179.768 179.545 178.943 180.262 178.249ZM165.305 211.506C166.002 210.787 166.832 210.21 167.749 209.808C167.336 210.715 166.761 211.539 166.051 212.239C165.351 212.954 164.522 213.53 163.608 213.936C164.02 213.029 164.595 212.205 165.305 211.506ZM197.584 144.234C198.28 143.51 199.11 142.929 200.028 142.523C199.613 143.433 199.033 144.257 198.317 144.954C197.625 145.672 196.799 146.248 195.887 146.652C196.299 145.748 196.875 144.929 197.584 144.234ZM181.097 245.727C181.79 245.015 182.61 244.439 183.515 244.029C183.116 244.94 182.539 245.762 181.818 246.447C181.131 247.166 180.309 247.743 179.4 248.145C179.818 247.244 180.393 246.426 181.097 245.727ZM181.458 221.511C182.455 221.498 183.447 221.677 184.377 222.038C182.488 222.707 180.427 222.707 178.538 222.038C179.469 221.679 180.46 221.5 181.458 221.511ZM146.915 199.919C147.813 199.594 148.763 199.433 149.718 199.443C150.715 199.443 151.704 199.622 152.638 199.97C151.705 200.321 150.715 200.496 149.718 200.485C148.764 200.489 147.815 200.328 146.915 200.009H146.812L146.915 199.919ZM169.703 167.768L169.961 167.858C169.789 167.934 169.613 167.998 169.433 168.051L169.703 167.768ZM182.834 197.038C183.195 197.973 183.374 198.968 183.361 199.97C183.366 200.963 183.187 201.949 182.834 202.877C182.481 201.949 182.311 200.962 182.332 199.97C182.31 198.97 182.481 197.974 182.834 197.038ZM197.957 163.601C198.308 164.53 198.483 165.515 198.472 166.508C198.483 167.509 198.308 168.503 197.957 169.44C197.606 168.503 197.432 167.509 197.443 166.508C197.432 165.532 197.607 164.563 197.957 163.653V163.601Z" fill="white"></path><path d="M191.001 230.527C193.097 228.353 195.155 226.116 197.199 223.891C198.177 222.823 199.18 221.756 200.132 220.663C201.083 219.57 202.292 218.348 203.218 217.088C203.295 216.998 203.218 216.895 203.102 216.972C201.893 217.949 200.8 219.145 199.669 220.213C198.537 221.28 197.585 222.245 196.556 223.261C194.409 225.408 192.274 227.543 190.126 229.691C185.947 234.076 181.896 238.564 177.883 243.104C177.861 243.126 177.849 243.156 177.849 243.188C177.849 243.219 177.861 243.249 177.883 243.271C177.905 243.293 177.935 243.306 177.967 243.306C177.998 243.306 178.028 243.293 178.05 243.271C182.474 239.117 186.795 234.886 191.001 230.527Z" fill="#263238"></path><path opacity="0.1" d="M153.114 216.534C163.286 232.88 182.216 253.096 182.216 253.096L211.422 219.839C211.422 219.839 187.695 197.758 187.309 197.09C186.923 196.421 203.757 171.009 211.306 156.708C214.843 150.021 216.258 144.17 214.92 140.993L153.114 216.534Z" fill="black"></path><path d="M169.858 498.701C164.997 496.129 158.412 494.843 153.281 497.248C153.075 497.35 153.217 497.633 153.397 497.633C158.852 497.623 164.293 498.197 169.626 499.344C169.707 499.357 169.789 499.342 169.859 499.301C169.93 499.26 169.983 499.196 170.011 499.119C170.038 499.042 170.038 498.959 170.01 498.882C169.982 498.806 169.928 498.741 169.858 498.701Z" fill="#263238"></path><path d="M172.868 502.148C168.006 499.576 161.422 498.29 156.291 500.707C156.098 500.797 156.226 501.08 156.419 501.08C161.87 501.071 167.307 501.645 172.636 502.791C172.716 502.804 172.799 502.789 172.869 502.748C172.939 502.707 172.993 502.643 173.02 502.566C173.048 502.489 173.048 502.406 173.02 502.329C172.992 502.253 172.938 502.188 172.868 502.148Z" fill="#263238"></path><path d="M175.876 505.595C171.015 503.022 164.431 501.736 159.299 504.154C159.107 504.244 159.235 504.527 159.428 504.527C164.879 504.517 170.316 505.091 175.645 506.238C175.725 506.251 175.808 506.236 175.878 506.195C175.948 506.154 176.002 506.089 176.029 506.013C176.057 505.936 176.057 505.852 176.029 505.776C176.001 505.699 175.947 505.635 175.876 505.595Z" fill="#263238"></path><path d="M178.885 509.041C174.024 506.469 167.452 505.183 162.308 507.6C162.115 507.69 162.308 507.973 162.437 507.973C167.89 507.985 173.327 508.58 178.654 509.748C178.748 509.779 178.85 509.771 178.938 509.726C179.026 509.682 179.092 509.604 179.123 509.51C179.154 509.416 179.146 509.314 179.101 509.226C179.057 509.138 178.979 509.072 178.885 509.041Z" fill="#263238"></path><path d="M178.566 496.425C174 498.097 168.856 497.711 164.085 497.943C163.979 497.937 163.875 497.906 163.783 497.854C163.691 497.801 163.612 497.727 163.553 497.638C163.494 497.549 163.457 497.448 163.445 497.342C163.432 497.237 163.444 497.13 163.481 497.029C163.46 497.022 163.441 497.01 163.426 496.993C163.411 496.977 163.4 496.958 163.393 496.936C163.387 496.915 163.386 496.893 163.39 496.871C163.394 496.849 163.403 496.829 163.416 496.811C166.454 492.732 170.513 489.525 175.184 487.513C177.923 486.394 182.115 486.355 183.247 489.802C184.379 493.249 181.241 495.448 178.566 496.425ZM181.215 492.683C183.954 487.307 176.907 488.323 174.913 489.236C173.635 489.842 172.402 490.538 171.223 491.32C168.801 492.955 166.466 494.715 164.227 496.592C166.567 496.348 168.908 496.296 171.261 496.142C174.039 495.949 179.71 495.602 181.215 492.683Z" fill="#263238"></path><path d="M148.677 483.384C150.966 480.568 154.863 482.098 157.023 484.117C160.683 487.65 163.345 492.086 164.739 496.978C164.748 496.999 164.751 497.022 164.748 497.044C164.746 497.067 164.738 497.089 164.725 497.108C164.713 497.127 164.696 497.142 164.676 497.153C164.656 497.164 164.633 497.17 164.611 497.171C164.608 497.276 164.58 497.379 164.53 497.472C164.481 497.565 164.41 497.646 164.324 497.707C164.238 497.768 164.139 497.808 164.035 497.824C163.931 497.841 163.824 497.833 163.723 497.801C159.325 495.91 154.4 494.431 150.722 491.242C148.561 489.377 146.516 486.059 148.677 483.384ZM157.679 493.57C159.814 494.547 161.987 495.422 164.109 496.489C162.681 493.937 161.123 491.461 159.441 489.069C158.611 487.924 157.705 486.837 156.727 485.815C155.197 484.259 149.011 480.799 149.616 486.805C149.911 490.11 155.081 492.399 157.64 493.57H157.679Z" fill="#263238"></path><path d="M115.357 491.294C115.035 493.184 114.74 495.01 114.457 496.785C112.592 508.218 111.486 517.027 112.348 517.837C114.984 520.345 193.843 536.163 196.788 535.841C199.733 535.52 198.884 527.058 196.312 524.01C194.743 522.158 183.979 514.198 175.736 508.243C170.45 504.385 166.245 501.415 166.245 501.415L182.063 450.282L129.027 439.775C129.027 439.775 115.871 488.271 115.357 491.294Z" fill="#F7A9A0"></path><path d="M196.801 535.816C193.843 536.163 114.984 520.384 112.348 517.812C111.499 517.002 112.592 508.192 114.457 496.773C114.74 494.998 115.036 493.159 115.357 491.268C115.537 490.214 117.286 483.552 119.447 475.45L171.042 485.738L166.232 501.274C166.232 501.274 170.45 504.257 175.736 508.09C183.941 514.044 194.718 521.991 196.312 523.856C198.872 527.033 199.759 535.469 196.801 535.816Z" fill="#EBEBEB"></path><path d="M197.456 536.318C195.502 536.549 161.293 529.746 136.512 524.191C130.776 522.905 125.542 521.618 121.324 520.628C115.524 519.175 111.666 518.056 111.1 517.529C110.148 516.59 116.244 484.259 117.247 480.517L169.678 491.358L166.605 501.055C166.605 501.055 194.383 521.065 197.019 524.203C199.655 527.341 200.453 535.945 197.456 536.318Z" fill="#2093BF"></path><path d="M196.209 532.704C182.757 529.592 128.217 518.313 114.675 516.256C114.572 516.256 114.546 516.32 114.675 516.346C127.934 519.715 182.577 530.556 196.183 532.923C196.453 532.974 196.492 532.768 196.209 532.704Z" fill="#263238"></path><path d="M182.023 478.961C182.589 478.691 197.957 412.731 204.966 385.827C215.074 347.015 224.873 283.743 227.818 270.561C233.879 255.382 237.996 239.498 240.074 223.287C240.074 223.287 176.313 223.287 176.313 223.287C176.313 223.287 159.595 255.283 168.211 277.878C169.008 279.949 157.087 359.85 150.914 372.787C145.59 383.975 121.335 465.908 121.335 465.908L182.023 478.961Z" fill="#37474F"></path><path d="M181.677 465.445C180.12 464.879 178.449 464.596 176.841 464.159C175.234 463.721 173.446 463.284 171.697 462.873C168.289 462.101 164.855 461.368 161.409 460.622C154.567 459.143 147.7 457.754 140.832 456.365L135.2 455.246C133.325 454.792 131.415 454.504 129.49 454.385C129.47 454.392 129.453 454.405 129.441 454.422C129.429 454.44 129.423 454.46 129.423 454.481C129.423 454.502 129.429 454.523 129.441 454.54C129.453 454.557 129.47 454.57 129.49 454.578C131.042 455.168 132.643 455.624 134.274 455.941C135.971 456.352 137.682 456.751 139.418 457.137C142.774 457.896 146.144 458.667 149.513 459.4C156.303 460.879 163.081 462.397 169.897 463.76C171.826 464.159 173.755 464.557 175.697 464.879C177.638 465.2 179.555 465.702 181.535 465.843C181.754 465.92 181.96 465.547 181.677 465.445Z" fill="#263238"></path><path d="M211.127 267.628C209.905 274.277 208.889 280.951 207.783 287.613C207.23 291.008 206.497 294.378 205.918 297.773C205.339 301.168 204.825 304.434 204.298 307.765C202.137 321.191 199.994 334.609 197.868 348.018C196.796 354.679 195.724 361.337 194.653 367.99C193.669 374.552 192.33 381.056 190.64 387.473C188.878 393.903 186.782 400.205 184.866 406.558C182.95 412.911 180.854 419.572 178.86 426.079C174.886 439.017 175.452 441.216 171.89 454.282C171.453 455.915 171.003 457.536 170.604 459.156C170.594 459.193 170.599 459.234 170.618 459.267C170.637 459.301 170.669 459.326 170.707 459.336C170.744 459.346 170.784 459.341 170.818 459.322C170.852 459.303 170.877 459.271 170.887 459.233C175.298 446.373 174.681 444.199 178.77 431.262C182.86 418.325 186.898 405.58 190.756 392.604C192.636 386.309 194.135 379.905 195.244 373.43C196.389 366.768 197.379 360.081 198.446 353.406C200.581 339.98 202.725 326.562 204.877 313.154C205.931 306.556 207.088 299.972 207.912 293.336C208.76 286.468 209.943 279.653 210.959 272.759C211.217 271.088 211.461 269.416 211.68 267.731C211.718 267.422 211.204 267.268 211.127 267.628Z" fill="#263238"></path><path d="M265.963 503.099C260.536 502.045 253.888 502.842 249.721 506.687C249.554 506.829 249.721 507.06 249.952 507.009C255.149 505.362 260.509 504.28 265.938 503.781C266.017 503.769 266.091 503.729 266.144 503.669C266.198 503.609 266.229 503.531 266.232 503.451C266.235 503.37 266.21 503.291 266.161 503.227C266.112 503.163 266.042 503.117 265.963 503.099Z" fill="#263238"></path><path d="M269.872 505.479C264.445 504.437 257.797 505.235 253.617 509.067C253.463 509.221 253.681 509.453 253.849 509.401C259.05 507.755 264.414 506.673 269.847 506.174C269.892 506.175 269.938 506.168 269.981 506.152C270.023 506.136 270.063 506.112 270.096 506.081C270.129 506.05 270.156 506.013 270.175 505.971C270.194 505.93 270.205 505.885 270.207 505.839C270.208 505.794 270.201 505.748 270.185 505.705C270.169 505.663 270.145 505.623 270.114 505.59C270.083 505.556 270.046 505.529 270.004 505.51C269.963 505.491 269.918 505.481 269.872 505.479Z" fill="#263238"></path><path d="M273.782 507.871C268.355 506.829 261.706 507.613 257.526 511.459C257.372 511.613 257.526 511.832 257.758 511.78C262.961 510.139 268.324 509.057 273.756 508.552C273.836 508.54 273.909 508.5 273.963 508.44C274.016 508.38 274.047 508.303 274.051 508.222C274.054 508.141 274.028 508.062 273.979 507.998C273.93 507.934 273.86 507.889 273.782 507.871Z" fill="#263238"></path><path d="M277.678 510.263C272.251 509.208 265.602 510.006 261.436 513.851C261.268 513.992 261.436 514.224 261.667 514.172C266.864 512.526 272.224 511.444 277.652 510.945C277.732 510.932 277.805 510.893 277.859 510.832C277.913 510.772 277.944 510.695 277.947 510.614C277.95 510.534 277.925 510.454 277.876 510.39C277.827 510.326 277.757 510.281 277.678 510.263Z" fill="#263238"></path><path d="M273.589 498.316C269.731 501.286 264.728 502.47 260.227 504.103C260.124 504.129 260.018 504.131 259.914 504.108C259.811 504.086 259.715 504.04 259.633 503.974C259.55 503.907 259.484 503.823 259.44 503.727C259.396 503.631 259.375 503.527 259.378 503.421C259.355 503.421 259.333 503.415 259.313 503.404C259.293 503.393 259.276 503.377 259.263 503.358C259.251 503.339 259.243 503.318 259.241 503.295C259.238 503.272 259.241 503.249 259.249 503.228C260.934 498.429 263.848 494.154 267.699 490.831C269.975 488.941 273.962 487.642 276.071 490.6C278.18 493.557 275.839 496.592 273.589 498.316ZM275.003 493.956C275.993 488.002 269.576 491.088 267.956 492.554C266.923 493.517 265.956 494.548 265.062 495.641C263.224 497.928 261.506 500.31 259.918 502.778C262.079 501.839 264.291 501.093 266.49 500.206C269.203 499.216 274.45 497.235 275.003 493.956Z" fill="#263238"></path><path d="M241.168 494.831C242.454 491.461 246.685 491.744 249.36 493.03C253.901 495.316 257.764 498.752 260.561 502.997C260.575 503.015 260.583 503.037 260.586 503.059C260.59 503.082 260.587 503.105 260.58 503.126C260.572 503.148 260.56 503.167 260.543 503.183C260.526 503.198 260.506 503.209 260.484 503.216C260.515 503.317 260.521 503.424 260.502 503.528C260.483 503.632 260.44 503.73 260.376 503.814C260.312 503.898 260.229 503.965 260.134 504.011C260.039 504.057 259.934 504.08 259.828 504.077C255.07 503.588 249.926 503.653 245.464 501.724C242.853 500.592 239.908 498.033 241.168 494.831ZM252.742 501.865C255.07 502.161 257.411 502.341 259.738 502.727C257.61 500.726 255.382 498.833 253.064 497.055C251.929 496.21 250.739 495.44 249.502 494.753C247.573 493.738 240.589 492.297 243.007 497.827C244.358 500.888 249.99 501.505 252.768 501.865H252.742Z" fill="#263238"></path><path d="M211.564 496.888C211.564 500.103 212.953 532.331 213.956 532.961C217.017 534.903 297.458 535.134 300.274 534.247C303.09 533.359 300.621 525.245 297.509 522.673C295.606 521.168 283.504 515.445 274.296 511.188C268.381 508.462 263.661 506.327 263.661 506.327L263.918 496.888L264.651 453.896H211.461C211.461 453.896 211.204 475.977 211.564 496.888Z" fill="#F7A9A0"></path><path d="M300.287 534.183C297.458 535.109 217.017 534.864 213.957 532.897C212.954 532.267 211.603 500.052 211.565 496.888C211.565 494.753 211.487 492.619 211.475 490.458H263.996L263.893 496.888L263.623 506.315C263.623 506.315 268.343 508.449 274.258 511.176C283.466 515.42 295.581 521.155 297.471 522.673C300.622 525.181 303.078 533.231 300.287 534.183Z" fill="#EBEBEB"></path><path d="M302.178 534.813C300.313 535.418 265.436 535.431 240.05 534.813C234.173 534.659 228.798 534.479 224.464 534.286C218.484 533.99 214.484 533.643 213.828 533.231C212.709 532.498 211.102 499.615 211.41 495.731L264.562 496.014L264.755 506.135C264.755 506.135 296.211 520.448 299.387 523.02C302.564 525.592 305.059 533.862 302.178 534.813Z" fill="#2093BF"></path><path d="M300.262 531.508C286.463 531.084 230.816 530.672 217.081 531.302C216.979 531.302 216.979 531.392 217.081 531.392C230.752 532.112 286.463 532.074 300.262 531.74C300.557 531.727 300.557 531.521 300.262 531.508Z" fill="#263238"></path><path d="M202.073 280.335C202.073 280.335 211.152 369.469 211.307 371.565C211.307 372.388 207.449 481.315 207.449 481.315H267.493C267.493 481.315 265.345 379.256 264.432 366.666C264.33 365.199 260.446 274.586 242.956 223.287H176.224C176.224 223.287 176.803 253.431 190.512 275.229C194.459 276.712 198.319 278.416 202.073 280.335Z" fill="#37474F"></path><path d="M263.699 470.062C262.053 469.817 260.355 469.882 258.709 469.791C257.063 469.701 255.198 469.624 253.449 469.586C249.951 469.586 246.44 469.483 242.942 469.444C235.934 469.367 228.938 469.38 221.929 469.444C220.013 469.444 218.071 469.444 216.193 469.444C214.263 469.375 212.331 469.474 210.419 469.74C210.4 469.75 210.384 469.765 210.373 469.783C210.362 469.801 210.356 469.822 210.356 469.843C210.356 469.864 210.362 469.885 210.373 469.903C210.384 469.921 210.4 469.936 210.419 469.946C212.061 470.206 213.721 470.33 215.383 470.319C217.132 470.383 218.881 470.422 220.63 470.46C224.076 470.525 227.523 470.615 230.918 470.653C237.875 470.743 244.82 470.859 251.765 470.846C253.745 470.846 255.713 470.846 257.68 470.769C259.648 470.692 261.641 470.769 263.583 470.55C263.879 470.512 263.995 470.1 263.699 470.062Z" fill="#263238"></path><path d="M246.865 235.709C246.865 235.682 246.854 235.656 246.835 235.637C246.815 235.617 246.789 235.606 246.762 235.606C246.735 235.606 246.708 235.617 246.689 235.637C246.67 235.656 246.659 235.682 246.659 235.709C246.916 239.503 247.559 243.657 245.874 247.284C244.383 250.447 241.541 252.222 238.943 254.357C238.853 254.421 238.943 254.55 239.046 254.524C242.518 253.469 245.964 251.553 247.328 248.004C248.871 243.991 248.035 239.683 246.865 235.709Z" fill="#263238"></path><path d="M217.93 278.38C215.145 278.29 212.358 278.38 209.584 278.65C206.867 278.808 204.141 278.761 201.431 278.509C200.072 278.369 198.724 278.146 197.393 277.84C196.017 277.506 194.692 276.991 193.342 276.618C192.093 276.348 190.796 276.401 189.574 276.772C188.133 277.094 186.68 277.325 185.214 277.506C181.868 278 178.474 278.091 175.106 277.776C174.977 277.776 174.926 277.943 175.106 277.968C177.934 278.57 180.818 278.872 183.709 278.869C185.191 278.833 186.669 278.7 188.133 278.47C189.478 278.082 190.874 277.899 192.274 277.93C193.646 278.301 194.994 278.751 196.312 279.28C197.656 279.649 199.022 279.928 200.402 280.116C203.173 280.472 205.973 280.558 208.761 280.373C211.912 280.288 215.04 279.808 218.072 278.946C218.136 278.918 218.188 278.868 218.219 278.805C218.25 278.743 218.257 278.671 218.24 278.603C218.223 278.535 218.183 278.476 218.126 278.435C218.069 278.394 218 278.375 217.93 278.38Z" fill="#263238"></path><path d="M211.461 366.652H211.384H211.307C211.307 366.652 211.307 366.652 211.307 366.742V366.948C211.325 366.948 211.343 366.942 211.357 366.93C211.371 366.918 211.381 366.902 211.384 366.884C211.391 366.815 211.391 366.746 211.384 366.678C211.398 366.681 211.412 366.681 211.426 366.676C211.44 366.672 211.452 366.663 211.461 366.652Z" fill="#263238"></path><path d="M209.866 351.31C209.335 345.531 208.769 339.757 208.169 333.987C206.96 322.413 205.803 310.838 204.619 299.264C203.938 292.718 203.449 286.108 202.382 279.601C202.382 279.563 202.367 279.527 202.34 279.501C202.314 279.474 202.278 279.459 202.24 279.459C202.203 279.459 202.167 279.474 202.14 279.501C202.114 279.527 202.099 279.563 202.099 279.601C202.202 285.388 202.806 291.175 203.308 296.949C203.809 302.724 204.311 308.524 204.851 314.285C205.931 325.859 206.96 337.433 208.323 348.943C208.709 352.223 209.121 355.489 209.545 358.769C209.969 362.048 210.548 365.302 210.96 368.581C210.96 368.71 211.191 368.71 211.178 368.581C210.664 362.871 210.394 357.084 209.866 351.31Z" fill="#263238"></path><path d="M218.458 151.526C214.33 152.027 210.382 145.288 208.941 140.427C208.826 140.054 209.713 136.569 210.626 132.171C211.179 129.522 211.719 126.564 212.028 123.825L228.746 129.895C227.389 133.197 226.439 136.651 225.917 140.183C225.878 140.559 225.878 140.938 225.917 141.315V141.508C226.007 143.707 222.445 151.037 218.458 151.526Z" fill="#F7A9A0"></path><path d="M225.891 141.354V141.547C225.302 141.555 224.713 141.52 224.129 141.444C214.831 140.158 213.198 128.584 212.915 124.16L228.707 129.908C227.355 133.21 226.414 136.665 225.903 140.196C225.859 140.581 225.855 140.969 225.891 141.354Z" fill="#263238"></path><path d="M212.618 97.4874C208.76 104.059 207.384 122.488 211.332 128.262C217.042 136.634 228.848 140.145 236.59 132.724C244.087 125.523 245.515 102.194 240.885 96.7158C234.107 88.5881 218.379 87.7908 212.618 97.4874Z" fill="#F7A9A0"></path><path d="M242.711 108.071C242.711 108.071 241.965 112.418 238.853 112.997C238.596 112.997 224.231 131.297 209.699 125.728C209.699 125.728 201.829 110 207.796 99.1462C211.654 92.1245 217.351 91.4301 217.351 91.4301C217.351 91.4301 230.417 84.7427 241.451 92.6389C252.485 100.535 247.431 108.727 242.711 108.071Z" fill="#263238"></path><path d="M249.733 200.691L255.752 232.841C255.752 232.841 184.416 233.845 167.659 232.661C167.659 232.661 185.175 164.438 203.192 144.877C212.194 135.091 222.778 135.875 229.517 142.665C231.227 144.517 251.585 171.357 253.771 181.645C255.598 190.711 249.733 200.691 249.733 200.691Z" fill="#2093BF"></path><path d="M189.933 166.676C188.218 170.431 186.576 174.216 185.007 178.031C185.264 176.874 185.547 175.729 185.856 174.598C185.856 174.43 185.663 174.379 185.599 174.598C184.982 176.26 184.551 177.985 184.313 179.742C179.259 192.139 174.944 204.824 171.388 217.731C170.719 220.161 170.038 222.605 169.485 225.061C168.789 227.602 168.227 230.178 167.8 232.777C167.808 232.8 167.823 232.82 167.842 232.834C167.862 232.848 167.885 232.855 167.909 232.855C167.933 232.855 167.957 232.848 167.976 232.834C167.996 232.82 168.011 232.8 168.019 232.777C168.842 230.617 169.408 228.328 170.038 226.103C170.668 223.878 171.324 221.833 171.928 219.673C173.214 215.313 174.5 210.966 175.915 206.62C178.603 198.055 181.586 189.567 184.608 181.105C186.332 176.269 188.235 171.485 190.1 166.701C190.138 166.637 189.971 166.573 189.933 166.676Z" fill="#263238"></path><path d="M202.33 211.506C203.051 212.195 203.628 213.022 204.027 213.937C203.118 213.527 202.294 212.951 201.597 212.239C200.895 211.532 200.321 210.71 199.899 209.808C200.814 210.207 201.64 210.784 202.33 211.506ZM224.192 143.064C224.913 143.748 225.491 144.57 225.89 145.481C224.983 145.067 224.16 144.492 223.459 143.784C222.758 143.082 222.184 142.264 221.761 141.366C222.676 141.765 223.503 142.342 224.192 143.064ZM244.91 203.507C245.631 204.192 246.208 205.014 246.607 205.925C245.696 205.526 244.874 204.948 244.19 204.227C243.474 203.53 242.894 202.706 242.479 201.797C243.383 202.212 244.196 202.802 244.871 203.533L244.91 203.507ZM240.01 221.678C240.708 220.966 241.532 220.391 242.441 219.981C242.033 220.887 241.457 221.707 240.743 222.399C240.05 223.116 239.225 223.693 238.313 224.096C238.73 223.196 239.305 222.377 240.01 221.678ZM216.669 177.143C217.341 176.408 218.149 175.81 219.048 175.382C218.188 177.189 216.73 178.643 214.92 179.497C215.349 178.605 215.943 177.803 216.669 177.131V177.143ZM181.457 221.524C182.455 221.511 183.446 221.69 184.377 222.051C182.488 222.72 180.427 222.72 178.538 222.051C179.468 221.687 180.459 221.504 181.457 221.511V221.524ZM198.999 186.879C199.995 186.88 200.984 187.058 201.918 187.406C200.985 187.756 199.995 187.93 198.999 187.92C198.002 187.937 197.011 187.762 196.08 187.406C197.013 187.054 198.001 186.871 198.999 186.866V186.879ZM237.052 182.673C238.045 182.664 239.03 182.838 239.959 183.188C239.03 183.537 238.045 183.712 237.052 183.702C236.052 183.713 235.057 183.539 234.12 183.188C235.056 182.831 236.051 182.656 237.052 182.673ZM219.048 220.997C220.04 220.987 221.026 221.162 221.954 221.511C221.025 221.859 220.04 222.038 219.048 222.039C218.046 222.045 217.052 221.866 216.116 221.511C217.053 221.16 218.047 220.986 219.048 220.997ZM216.116 156.014C217.117 156.003 218.111 156.178 219.048 156.528C218.111 156.879 217.117 157.054 216.116 157.043C215.123 157.054 214.138 156.879 213.209 156.528C214.154 156.171 215.158 155.997 216.167 156.014H216.116ZM235.483 158.586C236.169 160.472 236.169 162.539 235.483 164.425C235.134 163.486 234.956 162.493 234.956 161.492C234.978 160.522 235.174 159.564 235.535 158.663L235.483 158.586ZM201.352 231.812C201.54 232.28 201.674 232.768 201.751 233.266H201.044C201.11 232.778 201.231 232.299 201.404 231.838L201.352 231.812ZM220.964 197.013C221.317 197.949 221.487 198.944 221.466 199.945C221.487 200.937 221.317 201.924 220.964 202.851C220.607 201.924 220.433 200.938 220.45 199.945C220.446 198.948 220.638 197.961 221.016 197.038L220.964 197.013ZM182.782 197.013C183.143 197.947 183.322 198.943 183.309 199.945C183.315 200.938 183.136 201.923 182.782 202.851C182.429 201.924 182.259 200.937 182.28 199.945C182.278 198.95 182.466 197.963 182.833 197.038L182.782 197.013ZM197.906 163.576C198.257 164.504 198.431 165.49 198.42 166.482C198.431 167.483 198.256 168.477 197.906 169.414C197.555 168.477 197.38 167.483 197.391 166.482C197.4 165.512 197.592 164.552 197.957 163.653L197.906 163.576Z" fill="white"></path><path d="M238.79 158.663C249.387 179.034 258.839 204.96 260.948 206.002C268.443 208.209 276.129 209.707 283.904 210.477C291.736 211.056 286.386 249.649 280.997 249.829C269.526 250.215 248.512 242.782 240.385 234.693C234.469 228.803 228.425 184.435 226.984 168.103C225.055 146.292 232.386 146.33 238.79 158.663Z" fill="#F7A9A0"></path><path d="M269.011 216.187C269.011 216.187 272.47 214.258 283.903 210.426C291.812 207.776 313.327 207.622 330.958 225.498C337.273 231.928 332.9 239.644 325.647 233.6C321.568 230.14 317.152 227.099 312.465 224.52C312.465 224.52 314.485 234.539 310.434 238.86C306.889 242.631 303.081 246.146 299.039 249.379C298.282 248.769 297.561 248.117 296.879 247.425C296.879 247.425 286.681 252.209 278.874 249.148L269.011 216.187Z" fill="#F7A9A0"></path><path d="M290.666 210.104C294.705 211.789 303.205 215.493 309.095 220.946C315.641 226.99 326.611 240.416 322.097 245.2C318.792 248.711 314.149 243.914 314.149 243.914C314.149 243.914 317.519 250.421 313.828 252.916C310.471 255.205 307.102 251.322 307.102 251.322C307.102 251.322 308.465 255.617 304.813 257.199C300.402 259.102 298.267 249.791 292.145 247.862C290.769 247.399 290.666 210.104 290.666 210.104Z" fill="#F7A9A0"></path><path d="M301.547 226.745C307.394 230.982 311.805 236.905 314.188 243.721C314.188 243.901 314.188 244.03 314.06 243.875C310.573 237.706 306.354 231.981 301.495 226.822C301.495 226.822 301.508 226.72 301.547 226.745Z" fill="#263238"></path><path d="M295.631 233.523C298.486 235.735 305.109 243.335 307.205 251.232C307.205 251.412 307.141 251.527 307.064 251.386C303.892 245.034 300.009 239.063 295.489 233.587L295.631 233.523Z" fill="#263238"></path><path d="M282.063 207.533L280.932 251.437C280.932 251.437 243.92 245.509 236.963 232.379C230.931 220.984 227.124 183.355 224.913 160.258C223.408 144.582 229.864 144.324 238.673 155.23C247.482 166.135 259.738 202.273 260.703 203.392C261.667 204.51 282.063 207.533 282.063 207.533Z" fill="#2093BF"></path><path d="M260.201 216.265C260.87 218.153 260.87 220.214 260.201 222.103C259.843 221.172 259.668 220.181 259.687 219.184C259.662 218.186 259.837 217.194 260.201 216.265ZM235.535 158.664C236.221 160.549 236.221 162.616 235.535 164.502C235.184 163.565 235.01 162.571 235.021 161.57C235.006 160.577 235.18 159.591 235.535 158.664ZM278.077 213.423C279.073 213.412 280.063 213.586 280.996 213.937C280.063 214.288 279.073 214.462 278.077 214.451C277.08 214.47 276.088 214.295 275.158 213.937C276.09 213.585 277.08 213.411 278.077 213.423ZM260.072 201.848V201.964H259.905L260.072 201.848ZM249.913 235.336C250.91 235.338 251.898 235.516 252.832 235.864C250.946 236.55 248.879 236.55 246.994 235.864C247.924 235.504 248.915 235.325 249.913 235.336ZM237.053 182.609C238.045 182.598 239.031 182.773 239.959 183.124C239.031 183.475 238.045 183.649 237.053 183.638C236.052 183.649 235.058 183.475 234.12 183.124C235.06 182.789 236.055 182.636 237.053 182.674V182.609ZM252.909 187.483C253.286 187.114 253.69 186.775 254.118 186.467C254.234 186.737 254.337 187.008 254.44 187.278C254.195 187.604 253.928 187.913 253.642 188.204C252.949 188.921 252.124 189.498 251.212 189.901C251.629 189.023 252.199 188.226 252.896 187.548L252.909 187.483ZM260.42 244.827C261.118 244.116 261.942 243.541 262.85 243.13C262.442 244.039 261.866 244.864 261.153 245.56C260.867 245.843 260.562 246.105 260.24 246.345L259.404 246.075C259.705 245.653 260.04 245.258 260.407 244.892L260.42 244.827ZM240.01 221.679C240.71 220.964 241.54 220.388 242.454 219.981C242.037 220.885 241.457 221.705 240.743 222.399C240.051 223.117 239.225 223.693 238.313 224.097C238.731 223.196 239.306 222.378 240.01 221.679ZM273.447 232.957C274.173 233.641 274.754 234.463 275.158 235.375C274.243 234.976 273.416 234.399 272.727 233.677C272.014 232.985 271.438 232.165 271.029 231.26C271.939 231.655 272.761 232.228 273.447 232.944V232.957ZM244.872 203.546C245.593 204.231 246.17 205.053 246.569 205.964C245.658 205.565 244.836 204.987 244.151 204.266C243.435 203.572 242.859 202.747 242.454 201.835C243.363 202.238 244.184 202.815 244.872 203.533V203.546Z" fill="white"></path><path d="M271.583 227.273C271.711 224.25 271.776 221.215 271.827 218.193C271.827 216.74 271.904 215.287 271.827 213.834C271.75 212.38 271.917 210.67 271.827 209.101C271.82 209.084 271.809 209.07 271.794 209.06C271.779 209.05 271.761 209.044 271.743 209.044C271.725 209.044 271.708 209.05 271.693 209.06C271.678 209.07 271.667 209.084 271.66 209.101C271.403 210.644 271.377 212.252 271.223 213.808C271.068 215.364 271.017 216.701 270.914 218.155C270.734 221.177 270.541 224.186 270.425 227.221C270.194 233.278 270.129 239.323 270.142 245.38C270.15 245.403 270.165 245.422 270.185 245.436C270.204 245.45 270.228 245.458 270.252 245.458C270.276 245.458 270.299 245.45 270.319 245.436C270.338 245.422 270.353 245.403 270.361 245.38C270.888 239.348 271.313 233.33 271.583 227.273Z" fill="#263238"></path><path d="M248.306 241.677C245.693 240.256 243.258 238.529 241.052 236.533C238.807 234.616 237.07 232.172 235.998 229.421C235.047 226.618 234.295 223.752 233.748 220.843C233.105 217.937 232.565 215.018 232.05 212.085C231.086 206.221 230.07 200.357 229.234 194.454L226.495 176.797C226.842 182.751 227.472 188.68 228.154 194.608C228.835 200.537 229.71 206.44 230.854 212.304C231.794 218.223 233.306 224.038 235.368 229.665C236.606 232.436 238.479 234.876 240.834 236.79C243.109 238.726 245.62 240.368 248.306 241.677Z" fill="#263238"></path><path d="M227.344 187.65C227.207 184.609 226.635 181.604 225.646 178.725C225.796 181.764 226.368 184.768 227.344 187.65Z" fill="#263238"></path><path d="M237.439 145.932C239.857 143.475 241.876 140.788 242.326 137.29C242.639 134.131 242.07 130.948 240.68 128.094C241.342 129.939 241.685 131.883 241.696 133.843C241.528 141.559 233.671 145.044 231.034 151.564C230.289 153.544 230.185 155.708 230.739 157.75C231.365 159.788 231.795 161.881 232.025 164C232.07 165.767 231.739 167.524 231.054 169.154C230.369 170.783 229.345 172.249 228.051 173.453C225.067 176.256 221.068 176.963 217.107 176.719C212.643 176.547 208.295 175.251 204.465 172.951C201.205 170.923 198.698 167.883 197.328 164.296C196.684 162.469 196.404 160.534 196.505 158.599C196.582 156.516 196.916 154.445 196.865 152.362C196.859 150.12 196.036 147.957 194.55 146.279C193.187 144.749 191.502 143.565 190.023 142.164C189.56 141.906 189.097 141.649 188.647 141.366C186.717 140.3 185.129 138.708 184.069 136.775C183.065 134.675 182.589 132.362 182.68 130.036C182.65 127.459 183.374 124.929 184.763 122.757C185.857 121.248 187.06 119.821 188.364 118.488C189.65 116.842 191.412 115.401 192.222 113.344C193.122 111.08 190.936 106.399 193.418 102.014C195.342 98.8481 198.206 96.3618 201.61 94.9022C202.491 93.6313 203.563 92.5035 204.787 91.5585C211.731 86.1958 221.415 87.2375 228.771 91.1984C232.134 92.8522 234.915 95.4895 236.744 98.7603C238.763 102.747 237.812 106.965 237.169 111.17C236.783 113.361 236.783 115.603 237.169 117.793C237.593 119.703 238.186 121.571 238.944 123.375C239.046 123.658 239.162 123.941 239.278 124.236C240.259 125.958 241.118 127.745 241.85 129.586C242.958 132.416 243.235 135.504 242.647 138.486C241.13 145.211 233.555 147.886 231.652 154.381C231.652 154.522 231.407 154.484 231.446 154.381C232.243 150.87 235.008 148.375 237.439 145.932ZM189.161 141.238C187.141 138.966 185.753 136.203 185.136 133.226C184.432 129.892 184.645 126.43 185.753 123.208C186.093 122.214 186.523 121.254 187.04 120.34L186.962 120.443C185.863 121.629 184.941 122.967 184.223 124.416C182.949 127.545 182.736 131.006 183.619 134.267C184.434 137.187 186.371 139.665 189.007 141.161L189.161 141.238Z" fill="#263238"></path></svg>